<?xml version="1.0" standalone="no"?>
<svg class="home__blob" viewBox="0 0 200 200" xmlns="http://www.w3.org/2000/svg">
  <mask id="mask0" mask-type="alpha">
      <path fill="#FF0066" d="M51.4,-56.3C64.8,-50.1,72.3,-32.1,72.5,-15.2C72.6,1.8,65.3,17.6,56.7,32.9C48.1,48.2,38.2,62.9,24.1,69.5C10,76,-8.3,74.4,-21,66.2C-33.8,57.9,-41.1,42.9,-51.7,28.2C-62.3,13.4,-76.1,-1.2,-74.6,-13.7C-73,-26.1,-56.1,-36.4,-41.1,-42.3C-26.1,-48.2,-13.1,-49.6,3,-53.2C19.1,-56.8,38.1,-62.4,51.4,-56.3Z" transform="translate(100 100)" />
  </mask>
  <g mask="url(#mask0)">
      <path fill="#FF0066" d="M51.4,-56.3C64.8,-50.1,72.3,-32.1,72.5,-15.2C72.6,1.8,65.3,17.6,56.7,32.9C48.1,48.2,38.2,62.9,24.1,69.5C10,76,-8.3,74.4,-21,66.2C-33.8,57.9,-41.1,42.9,-51.7,28.2C-62.3,13.4,-76.1,-1.2,-74.6,-13.7C-73,-26.1,-56.1,-36.4,-41.1,-42.3C-26.1,-48.2,-13.1,-49.6,3,-53.2C19.1,-56.8,38.1,-62.4,51.4,-56.3Z" transform="translate(100 100)" />
      <image xlink:href=""></image>
  </g>
</svg>
